<svg width="1412" height="368" viewBox="0 0 1412 368" fill="none" xmlns="http://www.w3.org/2000/svg">
<mask id="mask0_60_204" style="mask-type:luminance" maskUnits="userSpaceOnUse" x="0" y="25" width="323" height="323">
<path d="M0 25.3334H322.365V348H0V25.3334Z" fill="white"/>
</mask>
<g mask="url(#mask0_60_204)">
<path d="M321.12 189.88L253.995 145.448L318.557 166.995C318.703 167.042 318.854 167.068 319.01 167.068C319.364 167.068 319.677 166.958 319.948 166.729C320.219 166.5 320.38 166.214 320.437 165.865C320.495 165.516 320.432 165.188 320.25 164.885C320.062 164.583 319.807 164.375 319.469 164.266L253.005 142.125H313.661C313.849 142.125 314.031 142.089 314.208 142.016C314.385 141.943 314.541 141.839 314.677 141.703C314.807 141.568 314.911 141.412 314.984 141.24C315.057 141.063 315.094 140.88 315.094 140.688C315.094 140.5 315.057 140.313 314.984 140.141C314.911 139.964 314.807 139.807 314.677 139.672C314.541 139.537 314.385 139.432 314.208 139.359C314.031 139.287 313.849 139.25 313.661 139.25H251.703L304.927 118.255C305.104 118.182 305.255 118.078 305.396 117.948C305.531 117.818 305.635 117.662 305.708 117.49C305.786 117.313 305.823 117.13 305.828 116.943C305.828 116.75 305.797 116.568 305.724 116.391C305.656 116.219 305.557 116.063 305.422 115.922C305.291 115.787 305.14 115.682 304.963 115.604C304.791 115.531 304.609 115.49 304.422 115.484C304.229 115.479 304.047 115.51 303.87 115.583L250.338 136.703L292.463 95.9532C292.614 95.823 292.729 95.6719 292.812 95.4948C292.896 95.3178 292.943 95.1303 292.953 94.9323C292.958 94.7396 292.927 94.5469 292.859 94.3646C292.786 94.1823 292.682 94.0209 292.547 93.875C292.411 93.7344 292.25 93.6303 292.073 93.5521C291.89 93.474 291.703 93.4375 291.505 93.4428C291.307 93.4428 291.12 93.4844 290.943 93.5625C290.76 93.6407 290.604 93.75 290.469 93.8907L248.818 134.151L276.495 75.8594C276.64 75.5053 276.64 75.1511 276.505 74.7969C276.364 74.4375 276.125 74.1771 275.781 74.0157C275.437 73.8542 275.083 73.8282 274.719 73.948C274.354 74.0677 274.083 74.2969 273.901 74.6303L246.922 131.458L257.432 58.6407C257.463 58.448 257.453 58.2605 257.406 58.073C257.354 57.8855 257.276 57.7136 257.161 57.5625C257.041 57.4063 256.901 57.2813 256.739 57.1823C256.573 57.0834 256.396 57.0209 256.203 56.9948C256.01 56.9688 255.823 56.9792 255.635 57.0261C255.448 57.073 255.281 57.1563 255.125 57.2709C254.974 57.3855 254.844 57.5261 254.75 57.6928C254.651 57.8594 254.588 58.0365 254.562 58.2292L244.364 128.901L235.833 44.7396C235.812 44.5521 235.755 44.3698 235.666 44.2032C235.578 44.0365 235.458 43.8907 235.307 43.7657C235.161 43.6459 234.995 43.5573 234.812 43.5053C234.63 43.448 234.443 43.4323 234.25 43.448C234.062 43.4688 233.88 43.5209 233.713 43.6146C233.541 43.7032 233.401 43.823 233.276 43.9688C233.156 44.1198 233.068 44.2865 233.015 44.4688C232.958 44.6511 232.937 44.8386 232.958 45.0313L241.302 126.807L212.271 34.5313C212.219 34.3386 212.135 34.1667 212.015 34.0105C211.896 33.8542 211.745 33.7292 211.573 33.6303C211.401 33.5365 211.219 33.4792 211.021 33.4584C210.828 33.4375 210.635 33.4584 210.448 33.5209C210.26 33.5782 210.088 33.6719 209.943 33.8021C209.791 33.9271 209.672 34.0834 209.588 34.2605C209.5 34.4375 209.453 34.625 209.443 34.8178C209.432 35.0157 209.463 35.2084 209.531 35.3907L237.844 125.401L187.401 28.2292C187.312 28.0625 187.193 27.9167 187.047 27.7917C186.901 27.6719 186.734 27.5834 186.552 27.5261C186.375 27.4688 186.187 27.448 185.995 27.4636C185.807 27.4792 185.625 27.5313 185.458 27.6198C185.286 27.7084 185.14 27.823 185.021 27.9688C184.896 28.1146 184.807 28.2813 184.75 28.4636C184.693 28.6459 184.672 28.8282 184.687 29.0209C184.703 29.2084 184.755 29.3907 184.844 29.5573L234.286 124.787L161.849 26.0105C161.739 25.8438 161.604 25.7084 161.437 25.5938C161.276 25.4844 161.094 25.4115 160.901 25.375C160.703 25.3386 160.51 25.3438 160.317 25.3855C160.125 25.4323 159.948 25.5105 159.786 25.6303C159.63 25.7448 159.5 25.8907 159.396 26.0625C159.297 26.2344 159.234 26.4167 159.213 26.6146C159.187 26.8073 159.203 27.0053 159.26 27.1928C159.317 27.3855 159.406 27.5521 159.536 27.7084L233.505 128.542L128.942 29.2084C128.802 29.0782 128.646 28.9792 128.463 28.9115C128.286 28.8386 128.104 28.8073 127.911 28.8178C127.724 28.823 127.541 28.8646 127.364 28.9428C127.192 29.0157 127.036 29.125 126.906 29.2657C126.776 29.4011 126.677 29.5625 126.609 29.7396C126.541 29.9167 126.51 30.099 126.515 30.2865C126.521 30.4792 126.562 30.6615 126.635 30.8334C126.713 31.0053 126.823 31.1615 126.958 31.2917L226.781 126.141L104.328 36.3021C104.177 36.1823 104.005 36.099 103.817 36.0469C103.63 35.9948 103.442 35.9844 103.25 36.0105C103.057 36.0365 102.875 36.099 102.708 36.198C102.541 36.2969 102.401 36.4271 102.286 36.5834C102.172 36.7396 102.088 36.9115 102.047 37.099C102 37.2917 101.995 37.4792 102.026 37.6719C102.057 37.8646 102.125 38.0417 102.229 38.2032C102.333 38.3698 102.469 38.5053 102.625 38.6146L223.995 127.667L81.1508 47.2188C80.9894 47.125 80.8071 47.0625 80.6196 47.0417C80.4269 47.0157 80.2394 47.0261 80.0571 47.0782C79.8696 47.1303 79.7029 47.2136 79.5519 47.3282C79.4008 47.448 79.2758 47.5886 79.1821 47.7553C79.0883 47.9219 79.0258 48.099 79.005 48.2865C78.979 48.4792 78.9894 48.6667 79.0415 48.849C79.0935 49.0365 79.1769 49.2032 79.2915 49.3542C79.4113 49.5053 79.5519 49.6303 79.7185 49.724L221.635 129.656L60.0467 61.6823C59.8696 61.6094 59.6873 61.573 59.4946 61.5678C59.3071 61.5678 59.1248 61.6042 58.9477 61.6771C58.7706 61.7448 58.6144 61.849 58.479 61.9844C58.3383 62.1198 58.2342 62.2709 58.1613 62.448C58.0883 62.625 58.0467 62.8073 58.0467 63C58.0467 63.1875 58.0831 63.3698 58.1508 63.5469C58.2238 63.724 58.3279 63.8803 58.4633 64.0157C58.5935 64.1563 58.7498 64.2605 58.9269 64.3334L219.76 131.953L41.5258 79.323C41.3383 79.2552 41.1456 79.2292 40.9477 79.2396C40.755 79.25 40.5675 79.3021 40.3904 79.3907C40.2133 79.4792 40.0623 79.6042 39.9373 79.7553C39.8071 79.9063 39.7185 80.0782 39.6613 80.2657C39.604 80.4584 39.5883 80.6511 39.6144 80.8438C39.6352 81.0417 39.6977 81.224 39.7967 81.3959C39.8956 81.5678 40.0258 81.7136 40.1873 81.8282C40.3435 81.948 40.5206 82.0261 40.7133 82.073L218.234 134.5L26.0415 99.6719C25.854 99.6407 25.6665 99.6459 25.479 99.6823C25.2967 99.724 25.1248 99.7969 24.9685 99.9063C24.8123 100.016 24.6821 100.151 24.5779 100.313C24.4738 100.474 24.406 100.646 24.3696 100.833C24.3383 101.021 24.3435 101.208 24.38 101.396C24.4217 101.583 24.4946 101.75 24.604 101.912C24.7133 102.068 24.8488 102.198 25.0102 102.297C25.1717 102.401 25.3435 102.469 25.531 102.505L217.151 137.234L14.005 122.224C13.8123 122.208 13.63 122.234 13.4477 122.292C13.2654 122.354 13.104 122.443 12.9581 122.568C12.8123 122.693 12.6977 122.839 12.6092 123.01C12.5258 123.182 12.4738 123.365 12.4633 123.552C12.4477 123.745 12.4685 123.927 12.531 124.109C12.5883 124.292 12.6821 124.453 12.8071 124.599C12.9321 124.745 13.0779 124.859 13.2498 124.948C13.4165 125.031 13.5988 125.083 13.7915 125.099L216.469 140.073L5.74458 146.396C5.55708 146.401 5.37479 146.438 5.19771 146.516C5.02583 146.589 4.86958 146.698 4.73937 146.833C4.60396 146.969 4.505 147.125 4.43208 147.302C4.36437 147.479 4.32792 147.667 4.33312 147.854C4.33312 148.047 4.37479 148.229 4.44771 148.401C4.52583 148.578 4.63 148.734 4.76542 148.865C4.90604 149 5.06229 149.099 5.23937 149.172C5.41646 149.24 5.59875 149.271 5.79146 149.271H5.83312L216.255 142.943L1.38 171.578C1.18729 171.589 1.01021 171.635 0.838332 171.724C0.666458 171.807 0.515416 171.922 0.390416 172.063C0.265416 172.208 0.171666 172.37 0.109166 172.547C0.0466656 172.729 0.0258322 172.917 0.0362495 173.104C0.0466655 173.297 0.0987495 173.479 0.182083 173.651C0.265416 173.818 0.379999 173.969 0.525832 174.094C0.666458 174.219 0.827916 174.313 1.01021 174.375C1.1925 174.438 1.37479 174.464 1.5675 174.448H1.755L216.297 145.854L1.10917 197.115C0.765416 197.208 0.489374 197.401 0.291458 197.698C0.0935415 197.99 0.0154162 198.313 0.0570829 198.667C0.0935415 199.021 0.249791 199.318 0.510208 199.557C0.770624 199.802 1.08312 199.927 1.43729 199.938C1.54667 199.938 1.66125 199.922 1.76542 199.896L216.781 148.651L4.90083 222.365C4.57271 222.484 4.32271 222.693 4.14562 222.995C3.97375 223.292 3.91646 223.615 3.97375 223.958C4.03104 224.297 4.1925 224.583 4.45812 224.807C4.71854 225.031 5.02583 225.146 5.37479 225.151C5.53625 225.151 5.6925 225.125 5.84875 225.073L217.604 151.417L12.6613 246.677C12.3592 246.818 12.13 247.042 11.9842 247.344C11.8331 247.646 11.7967 247.958 11.8696 248.287C11.9425 248.615 12.1144 248.885 12.3748 249.094C12.6352 249.307 12.9373 249.412 13.2706 249.412C13.4842 249.412 13.6873 249.365 13.8748 249.276L218.776 154.047L24.1977 269.432C23.9165 269.599 23.7185 269.828 23.5988 270.125C23.479 270.427 23.4581 270.729 23.5415 271.042C23.6248 271.354 23.7967 271.609 24.0467 271.802C24.3019 272 24.5935 272.104 24.9165 272.104C25.1717 272.104 25.4113 272.037 25.63 271.906L220.255 156.5L39.2029 290.078C38.9581 290.266 38.781 290.505 38.6873 290.802C38.5935 291.099 38.5988 291.391 38.6925 291.688C38.7915 291.979 38.9633 292.219 39.2185 292.401C39.4685 292.583 39.7498 292.672 40.0623 292.672C40.3904 292.672 40.6821 292.573 40.9373 292.365L222.062 158.787L57.2967 308.021C57.0727 308.219 56.9217 308.464 56.8488 308.755C56.781 309.047 56.7967 309.333 56.906 309.609C57.0102 309.891 57.1873 310.115 57.4373 310.287C57.6873 310.453 57.9581 310.537 58.2602 310.537C58.6248 310.531 58.9477 310.406 59.2185 310.162L224.068 160.776L78.0102 322.87C77.88 323.016 77.7863 323.172 77.7238 323.354C77.6613 323.531 77.6352 323.719 77.6456 323.906C77.6508 324.099 77.6977 324.276 77.781 324.448C77.8644 324.62 77.9738 324.771 78.1144 324.896C78.3904 325.146 78.7081 325.271 79.0779 325.271C79.505 325.266 79.8592 325.109 80.1404 324.792L226.396 162.484L100.817 334.234C100.469 334.708 100.432 335.208 100.692 335.729C100.958 336.255 101.385 336.516 101.974 336.516C102.463 336.521 102.849 336.323 103.135 335.927L228.906 163.943L125.135 341.813C125.036 341.974 124.979 342.151 124.953 342.339C124.927 342.526 124.937 342.714 124.989 342.896C125.036 343.083 125.12 343.25 125.234 343.401C125.349 343.552 125.484 343.677 125.651 343.771C125.87 343.901 126.109 343.969 126.37 343.964C126.922 343.964 127.333 343.724 127.609 343.245L231.604 165.01L150.333 345.417C150.255 345.589 150.213 345.771 150.208 345.958C150.203 346.151 150.234 346.333 150.302 346.51C150.37 346.688 150.469 346.849 150.599 346.984C150.729 347.125 150.88 347.234 151.052 347.313C151.239 347.396 151.437 347.438 151.64 347.443C151.922 347.438 152.182 347.365 152.422 347.208C152.656 347.057 152.833 346.849 152.948 346.594L234.448 165.703L175.786 344.964C175.729 345.146 175.703 345.328 175.719 345.521C175.734 345.708 175.786 345.891 175.87 346.057C175.958 346.229 176.073 346.375 176.219 346.5C176.359 346.62 176.526 346.714 176.703 346.771C176.849 346.823 177 346.849 177.151 346.849C177.463 346.849 177.739 346.76 177.995 346.578C178.245 346.396 178.416 346.156 178.515 345.859L237.406 165.958L200.849 340.474C200.812 340.662 200.807 340.849 200.844 341.037C200.88 341.224 200.948 341.396 201.052 341.557C201.156 341.714 201.286 341.849 201.448 341.958C201.604 342.063 201.776 342.135 201.963 342.177C202.062 342.188 202.161 342.188 202.255 342.177C202.594 342.177 202.896 342.068 203.161 341.854C203.422 341.641 203.588 341.365 203.656 341.037L240.385 165.724L224.828 332.078C224.812 332.266 224.833 332.453 224.89 332.635C224.943 332.813 225.031 332.979 225.156 333.125C225.276 333.271 225.422 333.385 225.588 333.479C225.755 333.568 225.932 333.62 226.12 333.635H226.26C226.63 333.641 226.953 333.516 227.229 333.266C227.505 333.016 227.661 332.708 227.693 332.339L243.328 165.005L247.177 319.927C247.182 320.115 247.224 320.297 247.297 320.469C247.375 320.635 247.479 320.792 247.609 320.922C247.745 321.052 247.901 321.151 248.073 321.224C248.245 321.292 248.427 321.328 248.614 321.328H248.651C248.838 321.323 249.015 321.281 249.187 321.208C249.359 321.135 249.51 321.031 249.646 320.896C249.776 320.76 249.875 320.604 249.948 320.432C250.015 320.26 250.052 320.078 250.052 319.891L246.166 163.755L267.302 304.438C267.354 304.792 267.515 305.089 267.791 305.318C268.062 305.552 268.38 305.667 268.739 305.667H268.953C269.14 305.635 269.318 305.573 269.479 305.474C269.64 305.375 269.781 305.25 269.896 305.099C270.005 304.948 270.088 304.776 270.13 304.594C270.177 304.406 270.187 304.224 270.161 304.037L248.781 161.875L284.687 285.917C284.776 286.224 284.948 286.469 285.203 286.662C285.458 286.854 285.75 286.948 286.068 286.948C286.203 286.953 286.338 286.932 286.469 286.891C286.651 286.839 286.818 286.75 286.963 286.635C287.114 286.516 287.234 286.375 287.323 286.208C287.416 286.042 287.469 285.865 287.495 285.672C287.515 285.484 287.5 285.302 287.448 285.12L251.062 159.438L298.916 264.912C299.031 265.167 299.208 265.37 299.443 265.526C299.682 265.677 299.937 265.755 300.224 265.755C300.469 265.755 300.698 265.698 300.911 265.583C301.125 265.464 301.297 265.302 301.432 265.099C301.562 264.891 301.635 264.667 301.656 264.422C301.672 264.177 301.63 263.948 301.531 263.724L252.844 156.359L309.614 241.818C309.901 242.25 310.302 242.458 310.812 242.458C311.104 242.458 311.364 242.38 311.604 242.224C311.765 242.115 311.896 241.984 312 241.828C312.109 241.672 312.182 241.495 312.219 241.313C312.255 241.125 312.255 240.938 312.219 240.75C312.182 240.563 312.114 240.391 312.005 240.234L253.984 152.88L316.536 217.448C316.823 217.74 317.166 217.885 317.573 217.885C317.859 217.88 318.125 217.802 318.364 217.641C318.604 217.484 318.781 217.271 318.89 217.005C319 216.74 319.031 216.469 318.979 216.182C318.927 215.901 318.802 215.656 318.599 215.448L254.375 149.156L319.531 192.281C319.771 192.438 320.036 192.516 320.323 192.516C320.64 192.516 320.922 192.422 321.177 192.234C321.432 192.047 321.604 191.802 321.693 191.5C321.786 191.198 321.776 190.896 321.672 190.599C321.568 190.302 321.38 190.068 321.12 189.891V189.88Z" fill="#033F76"/>
</g>
<mask id="mask1_60_204" style="mask-type:luminance" maskUnits="userSpaceOnUse" x="347" y="0" width="1065" height="368">
<path d="M1411.02 0H347.021V368H1411.02V0Z" fill="white"/>
</mask>
<g mask="url(#mask1_60_204)">
<path d="M442.842 44.6356L500.259 159.781H463.509L453.738 138.969H396.946L387.175 159.781H350.571L407.53 44.6356H442.842ZM441.28 112.469L425.196 78.3856L409.259 112.469H441.28Z" fill="#033F76"/>
<path d="M616.332 112.156V44.6356H648.811V159.781H620.27L541.416 85.969V159.781H508.916V44.6356H544.561L616.332 112.156Z" fill="#033F76"/>
<path d="M670.875 44.6356H739.02C751.421 44.6356 762.322 46.1096 771.729 49.0523C781.145 52.0002 789.031 56.0263 795.395 61.1356C801.755 66.2346 806.541 72.0419 809.75 78.5523C812.958 85.0679 814.562 91.9013 814.562 99.0523V105.365C814.562 112.521 812.958 119.36 809.75 125.886C806.541 132.401 801.755 138.209 795.395 143.302C789.031 148.401 781.145 152.422 771.729 155.365C762.322 158.313 751.421 159.781 739.02 159.781H670.875V44.6356ZM779.395 104.427V100.011C779.395 95.9013 777.838 91.9013 774.729 88.0106C771.63 84.1252 766.713 80.9221 759.979 78.4065C753.255 75.8804 744.375 74.6148 733.333 74.6148H705.416V129.823H733.333C744.375 129.823 753.255 128.563 759.979 126.031C766.713 123.505 771.63 120.297 774.729 116.406C777.838 112.521 779.395 108.526 779.395 104.427Z" fill="#033F76"/>
<path d="M908.376 44.6356L965.793 159.781H929.043L919.272 138.969H862.48L852.71 159.781H816.105L873.064 44.6356H908.376ZM906.814 112.469L890.73 78.3856L874.793 112.469H906.814Z" fill="#033F76"/>
<path d="M1102.2 135.656V145.427C1102.2 148.584 1102.62 151.261 1103.47 153.469C1104.31 155.677 1105.89 157.781 1108.2 159.781H1070.35C1066.77 156.214 1064.99 151.427 1064.99 145.427V135.49C1064.99 130.24 1064.23 126.802 1062.7 125.177C1061.17 123.542 1058.1 122.719 1053.47 122.719H1008.2V159.781H974.449V44.6356H1055.05C1067.36 44.6356 1077.29 46.1096 1084.87 49.0523C1092.43 52.0002 1097.93 55.969 1101.35 60.969C1104.76 65.9585 1106.47 71.6565 1106.47 78.0731C1106.47 84.3804 1104.97 89.6148 1101.97 93.7815C1098.97 97.9377 1095.16 101.146 1090.53 103.406C1085.91 105.656 1081.23 107.209 1076.49 108.052V108.365C1085.32 109.422 1091.81 112.026 1095.97 116.177C1100.12 120.334 1102.2 126.823 1102.2 135.656ZM1008.2 94.0106H1052.85C1060.51 94.0106 1065.61 93.094 1068.14 91.2606C1070.66 89.4169 1071.93 86.8596 1071.93 83.594C1071.93 81.3856 1071.4 79.5263 1070.35 78.0106C1069.29 76.4846 1067.37 75.3231 1064.57 74.5315C1061.79 73.7398 1057.78 73.344 1052.53 73.344H1008.2V94.0106Z" fill="#033F76"/>
<path d="M1203.59 44.6356L1261.01 159.781H1224.26L1214.49 138.969H1157.7L1147.93 159.781H1111.32L1168.28 44.6356H1203.59ZM1202.03 112.469L1185.95 78.3856L1170.01 112.469H1202.03Z" fill="#033F76"/>
<path d="M360.05 293.341H376.3C377.035 299.023 379.134 304.101 382.592 308.57C386.061 313.044 391.639 316.544 399.321 319.07C406.998 321.585 417.467 322.841 430.717 322.841C440.384 322.841 448.342 322.294 454.592 321.195C460.852 320.085 465.743 318.643 469.259 316.861C472.785 315.07 475.285 313.127 476.759 311.028C478.227 308.919 478.967 306.809 478.967 304.695C478.967 302.278 478.389 300.049 477.238 298.007C476.082 295.955 473.821 294.085 470.446 292.403C467.082 290.726 462.139 289.226 455.613 287.903C449.097 286.585 440.477 285.403 429.759 284.361C416.3 283.101 405.285 281.445 396.717 279.403C388.144 277.351 381.519 274.924 376.842 272.132C372.16 269.341 368.925 266.216 367.134 262.757C365.352 259.289 364.467 255.497 364.467 251.382C364.467 247.289 365.571 243.268 367.779 239.32C369.988 235.377 373.535 231.83 378.425 228.674C383.311 225.523 389.675 223.002 397.509 221.111C405.342 219.21 414.936 218.257 426.3 218.257C441.326 218.257 453.363 220.101 462.404 223.778C471.446 227.46 478.175 232.539 482.592 239.007C487.009 245.481 489.743 252.872 490.8 261.174H474.717C473.769 255.174 471.743 249.997 468.634 245.632C465.535 241.273 460.618 237.914 453.884 235.549C447.16 233.174 437.967 231.986 426.3 231.986C414.3 231.986 404.957 232.914 398.279 234.757C391.613 236.591 386.957 238.934 384.321 241.778C381.696 244.611 380.384 247.445 380.384 250.278C380.384 252.809 380.957 255.127 382.113 257.236C383.279 259.335 385.571 261.226 388.988 262.903C392.404 264.585 397.368 266.085 403.884 267.403C410.41 268.71 419.035 269.841 429.759 270.799C443.118 272.049 454.029 273.705 462.488 275.757C470.957 277.815 477.556 280.21 482.279 282.945C487.014 285.669 490.3 288.794 492.134 292.32C493.977 295.851 494.904 299.768 494.904 304.07C494.904 308.169 493.8 312.143 491.592 315.986C489.384 319.82 485.779 323.294 480.779 326.403C475.79 329.502 469.196 331.976 460.988 333.82C452.79 335.653 442.701 336.57 430.717 336.57C418.092 336.57 407.389 335.492 398.613 333.341C389.832 331.174 382.707 328.122 377.238 324.174C371.764 320.231 367.66 315.632 364.925 310.382C362.201 305.122 360.576 299.44 360.05 293.341Z" fill="#033F76"/>
<path d="M621.848 219.841H642.203L581.161 291.132V334.987H565.536V290.674L504.015 219.841H524.682L573.432 276.778L621.848 219.841Z" fill="#033F76"/>
<path d="M650.221 293.341H666.471C667.205 299.023 669.304 304.101 672.762 308.57C676.231 313.044 681.809 316.544 689.492 319.07C697.169 321.585 707.637 322.841 720.887 322.841C730.554 322.841 738.512 322.294 744.762 321.195C751.023 320.085 755.913 318.643 759.429 316.861C762.955 315.07 765.455 313.127 766.929 311.028C768.398 308.919 769.137 306.809 769.137 304.695C769.137 302.278 768.559 300.049 767.408 298.007C766.252 295.955 763.992 294.085 760.617 292.403C757.252 290.726 752.309 289.226 745.783 287.903C739.268 286.585 730.648 285.403 719.929 284.361C706.471 283.101 695.455 281.445 686.887 279.403C678.314 277.351 671.689 274.924 667.012 272.132C662.33 269.341 659.096 266.216 657.304 262.757C655.523 259.289 654.637 255.497 654.637 251.382C654.637 247.289 655.742 243.268 657.95 239.32C660.158 235.377 663.705 231.83 668.596 228.674C673.481 225.523 679.846 223.002 687.679 221.111C695.512 219.21 705.106 218.257 716.471 218.257C731.497 218.257 743.533 220.101 752.575 223.778C761.617 227.46 768.346 232.539 772.762 239.007C777.179 245.481 779.913 252.872 780.971 261.174H764.887C763.939 255.174 761.913 249.997 758.804 245.632C755.705 241.273 750.788 237.914 744.054 235.549C737.33 233.174 728.137 231.986 716.471 231.986C704.471 231.986 695.127 232.914 688.45 234.757C681.783 236.591 677.127 238.934 674.492 241.778C671.867 244.611 670.554 247.445 670.554 250.278C670.554 252.809 671.127 255.127 672.283 257.236C673.45 259.335 675.742 261.226 679.158 262.903C682.575 264.585 687.538 266.085 694.054 267.403C700.58 268.71 709.205 269.841 719.929 270.799C733.288 272.049 744.2 273.705 752.658 275.757C761.127 277.815 767.726 280.21 772.45 282.945C777.184 285.669 780.471 288.794 782.304 292.32C784.148 295.851 785.075 299.768 785.075 304.07C785.075 308.169 783.971 312.143 781.762 315.986C779.554 319.82 775.95 323.294 770.95 326.403C765.96 329.502 759.367 331.976 751.158 333.82C742.96 335.653 732.872 336.57 720.887 336.57C708.262 336.57 697.559 335.492 688.783 333.341C680.002 331.174 672.877 328.122 667.408 324.174C661.934 320.231 657.83 315.632 655.096 310.382C652.372 305.122 650.747 299.44 650.221 293.341Z" fill="#033F76"/>
<path d="M856.019 233.57H798.769V219.841H929.061V233.57H871.79V334.987H856.019V233.57Z" fill="#033F76"/>
<path d="M1059.46 334.987H948.277V219.841H1056.01V233.57H963.882V269.695H1048.28V283.403H963.882V321.257H1059.46V334.987Z" fill="#033F76"/>
<path d="M1161.49 315.424L1224.11 219.841H1243.05V334.987H1227.43V240.507L1165.45 334.987H1157.4L1095.4 238.924V334.987H1079.8V219.841H1099.82L1161.49 315.424Z" fill="#033F76"/>
<path d="M1263.84 293.341H1280.09C1280.82 299.023 1282.92 304.101 1286.38 308.57C1289.85 313.044 1295.42 316.544 1303.11 319.07C1310.78 321.585 1321.25 322.841 1334.5 322.841C1344.17 322.841 1352.13 322.294 1358.38 321.195C1364.64 320.085 1369.53 318.643 1373.04 316.861C1376.57 315.07 1379.07 313.127 1380.54 311.028C1382.01 308.919 1382.75 306.809 1382.75 304.695C1382.75 302.278 1382.17 300.049 1381.02 298.007C1379.87 295.955 1377.61 294.085 1374.23 292.403C1370.87 290.726 1365.92 289.226 1359.4 287.903C1352.88 286.585 1344.26 285.403 1333.54 284.361C1320.09 283.101 1309.07 281.445 1300.5 279.403C1291.93 277.351 1285.3 274.924 1280.63 272.132C1275.95 269.341 1272.71 266.216 1270.92 262.757C1269.14 259.289 1268.25 255.497 1268.25 251.382C1268.25 247.289 1269.36 243.268 1271.57 239.32C1273.77 235.377 1277.32 231.83 1282.21 228.674C1287.1 225.523 1293.46 223.002 1301.29 221.111C1309.13 219.21 1318.72 218.257 1330.09 218.257C1345.11 218.257 1357.15 220.101 1366.19 223.778C1375.23 227.46 1381.96 232.539 1386.38 239.007C1390.79 245.481 1393.53 252.872 1394.59 261.174H1378.5C1377.55 255.174 1375.53 249.997 1372.42 245.632C1369.32 241.273 1364.4 237.914 1357.67 235.549C1350.95 233.174 1341.75 231.986 1330.09 231.986C1318.09 231.986 1308.74 232.914 1302.07 234.757C1295.4 236.591 1290.74 238.934 1288.11 241.778C1285.48 244.611 1284.17 247.445 1284.17 250.278C1284.17 252.809 1284.74 255.127 1285.9 257.236C1287.07 259.335 1289.36 261.226 1292.77 262.903C1296.19 264.585 1301.15 266.085 1307.67 267.403C1314.2 268.71 1322.82 269.841 1333.54 270.799C1346.9 272.049 1357.82 273.705 1366.27 275.757C1374.74 277.815 1381.34 280.21 1386.07 282.945C1390.8 285.669 1394.09 288.794 1395.92 292.32C1397.76 295.851 1398.69 299.768 1398.69 304.07C1398.69 308.169 1397.59 312.143 1395.38 315.986C1393.17 319.82 1389.57 323.294 1384.57 326.403C1379.58 329.502 1372.98 331.976 1364.77 333.82C1356.58 335.653 1346.49 336.57 1334.5 336.57C1321.88 336.57 1311.17 335.492 1302.4 333.341C1293.62 331.174 1286.49 328.122 1281.02 324.174C1275.55 320.231 1271.45 315.632 1268.71 310.382C1265.99 305.122 1264.36 299.44 1263.84 293.341Z" fill="#033F76"/>
</g>
</svg>
