<svg xmlns="http://www.w3.org/2000/svg" xmlns:xlink="http://www.w3.org/1999/xlink" width="1902" zoomAndPan="magnify" viewBox="0 0 1426.5 380.250002" height="507" preserveAspectRatio="xMidYMid meet" version="1.0"><defs><g/><clipPath id="ddae260823"><path d="M 1.15625 69 L 242.925781 69 L 242.925781 311 L 1.15625 311 Z M 1.15625 69 " clip-rule="nonzero"/></clipPath><clipPath id="444771b4af"><rect x="0" width="1108" y="0" height="276"/></clipPath></defs><g clip-path="url(#ddae260823)"><path fill="#033f76" d="M 241.996094 192.410156 L 191.648438 159.085938 L 240.070312 175.246094 C 240.179688 175.28125 240.292969 175.300781 240.410156 175.300781 C 240.675781 175.300781 240.910156 175.21875 241.113281 175.046875 C 241.316406 174.875 241.4375 174.660156 241.480469 174.398438 C 241.523438 174.136719 241.476562 173.890625 241.339844 173.664062 C 241.203125 173.4375 241.007812 173.28125 240.753906 173.199219 L 190.90625 156.59375 L 236.398438 156.59375 C 236.539062 156.59375 236.679688 156.566406 236.808594 156.511719 C 236.941406 156.457031 237.058594 156.378906 237.160156 156.277344 C 237.261719 156.175781 237.339844 156.058594 237.394531 155.929688 C 237.449219 155.796875 237.476562 155.660156 237.476562 155.515625 C 237.476562 155.375 237.449219 155.234375 237.394531 155.105469 C 237.339844 154.972656 237.261719 154.855469 237.160156 154.753906 C 237.058594 154.652344 236.941406 154.574219 236.808594 154.519531 C 236.679688 154.464844 236.539062 154.4375 236.398438 154.4375 L 189.929688 154.4375 L 229.847656 138.691406 C 229.980469 138.636719 230.097656 138.558594 230.199219 138.460938 C 230.300781 138.363281 230.378906 138.246094 230.433594 138.117188 C 230.492188 137.984375 230.519531 137.847656 230.523438 137.707031 C 230.523438 137.5625 230.5 137.425781 230.449219 137.292969 C 230.394531 137.164062 230.320312 137.046875 230.222656 136.941406 C 230.121094 136.839844 230.007812 136.761719 229.878906 136.703125 C 229.746094 136.648438 229.609375 136.617188 229.46875 136.613281 C 229.328125 136.609375 229.1875 136.632812 229.054688 136.6875 L 188.90625 152.527344 L 220.503906 121.964844 C 220.613281 121.867188 220.699219 121.753906 220.761719 121.621094 C 220.828125 121.488281 220.859375 121.347656 220.867188 121.199219 C 220.871094 121.054688 220.847656 120.910156 220.796875 120.773438 C 220.742188 120.636719 220.667969 120.515625 220.5625 120.40625 C 220.460938 120.300781 220.34375 120.222656 220.207031 120.164062 C 220.070312 120.105469 219.929688 120.078125 219.78125 120.082031 C 219.636719 120.082031 219.496094 120.113281 219.359375 120.171875 C 219.222656 120.230469 219.105469 120.3125 219.003906 120.417969 L 187.765625 150.613281 L 208.523438 106.894531 C 208.632812 106.628906 208.636719 106.363281 208.53125 106.097656 C 208.429688 105.828125 208.246094 105.632812 207.988281 105.511719 C 207.730469 105.390625 207.464844 105.371094 207.191406 105.460938 C 206.921875 105.550781 206.714844 105.722656 206.578125 105.972656 L 186.34375 148.59375 L 194.230469 93.980469 C 194.25 93.835938 194.242188 93.695312 194.207031 93.554688 C 194.171875 93.414062 194.109375 93.285156 194.023438 93.171875 C 193.9375 93.054688 193.832031 92.960938 193.707031 92.886719 C 193.582031 92.8125 193.449219 92.765625 193.304688 92.746094 C 193.164062 92.726562 193.019531 92.734375 192.882812 92.769531 C 192.742188 92.804688 192.613281 92.867188 192.5 92.953125 C 192.382812 93.039062 192.289062 93.144531 192.214844 93.269531 C 192.140625 93.394531 192.09375 93.527344 192.074219 93.671875 L 184.425781 146.675781 L 178.027344 83.554688 C 178.011719 83.414062 177.972656 83.277344 177.902344 83.152344 C 177.835938 83.027344 177.746094 82.917969 177.636719 82.824219 C 177.523438 82.734375 177.398438 82.667969 177.261719 82.628906 C 177.125 82.585938 176.984375 82.574219 176.84375 82.585938 C 176.699219 82.601562 176.566406 82.640625 176.4375 82.710938 C 176.3125 82.777344 176.203125 82.867188 176.113281 82.976562 C 176.019531 83.089844 175.957031 83.214844 175.914062 83.351562 C 175.871094 83.488281 175.859375 83.628906 175.871094 83.773438 L 182.132812 145.105469 L 160.355469 75.898438 C 160.316406 75.753906 160.253906 75.625 160.164062 75.507812 C 160.074219 75.390625 159.964844 75.296875 159.835938 75.222656 C 159.707031 75.152344 159.566406 75.109375 159.421875 75.09375 C 159.273438 75.078125 159.128906 75.09375 158.988281 75.140625 C 158.847656 75.183594 158.722656 75.253906 158.609375 75.351562 C 158.496094 75.445312 158.410156 75.5625 158.34375 75.695312 C 158.277344 75.828125 158.242188 75.96875 158.234375 76.113281 C 158.230469 76.261719 158.25 76.40625 158.304688 76.542969 L 179.535156 144.050781 L 141.703125 71.171875 C 141.636719 71.046875 141.546875 70.9375 141.4375 70.84375 C 141.328125 70.753906 141.207031 70.6875 141.070312 70.644531 C 140.933594 70.601562 140.792969 70.585938 140.652344 70.597656 C 140.507812 70.609375 140.375 70.648438 140.246094 70.714844 C 140.121094 70.78125 140.011719 70.867188 139.917969 70.976562 C 139.824219 71.085938 139.757812 71.210938 139.714844 71.347656 C 139.671875 71.484375 139.65625 71.621094 139.667969 71.765625 C 139.679688 71.90625 139.71875 72.042969 139.785156 72.167969 L 176.871094 143.589844 L 122.539062 69.507812 C 122.457031 69.382812 122.355469 69.28125 122.234375 69.195312 C 122.109375 69.113281 121.976562 69.058594 121.828125 69.03125 C 121.683594 69.003906 121.535156 69.007812 121.390625 69.039062 C 121.246094 69.074219 121.113281 69.132812 120.996094 69.222656 C 120.875 69.308594 120.777344 69.417969 120.703125 69.546875 C 120.628906 69.675781 120.582031 69.8125 120.5625 69.960938 C 120.542969 70.105469 120.554688 70.253906 120.597656 70.394531 C 120.640625 70.539062 120.707031 70.664062 120.804688 70.78125 L 176.28125 146.40625 L 97.859375 71.90625 C 97.753906 71.808594 97.636719 71.734375 97.503906 71.683594 C 97.367188 71.628906 97.230469 71.605469 97.085938 71.613281 C 96.945312 71.617188 96.808594 71.648438 96.675781 71.707031 C 96.546875 71.761719 96.433594 71.84375 96.335938 71.949219 C 96.238281 72.050781 96.164062 72.171875 96.109375 72.304688 C 96.058594 72.4375 96.035156 72.574219 96.039062 72.714844 C 96.042969 72.859375 96.074219 72.996094 96.132812 73.125 C 96.1875 73.253906 96.269531 73.371094 96.371094 73.46875 L 171.242188 144.605469 L 79.398438 77.226562 C 79.285156 77.136719 79.15625 77.074219 79.015625 77.035156 C 78.875 76.996094 78.734375 76.988281 78.589844 77.007812 C 78.445312 77.027344 78.3125 77.074219 78.183594 77.148438 C 78.058594 77.222656 77.953125 77.320312 77.867188 77.4375 C 77.78125 77.554688 77.722656 77.683594 77.6875 77.824219 C 77.652344 77.96875 77.648438 78.109375 77.671875 78.253906 C 77.699219 78.398438 77.75 78.53125 77.828125 78.652344 C 77.90625 78.777344 78.003906 78.878906 78.125 78.960938 L 169.152344 145.75 L 62.019531 85.414062 C 61.894531 85.34375 61.761719 85.296875 61.617188 85.28125 C 61.476562 85.261719 61.335938 85.269531 61.195312 85.308594 C 61.058594 85.347656 60.933594 85.410156 60.816406 85.496094 C 60.703125 85.585938 60.613281 85.691406 60.539062 85.816406 C 60.46875 85.941406 60.425781 86.074219 60.40625 86.214844 C 60.386719 86.359375 60.398438 86.5 60.433594 86.636719 C 60.472656 86.777344 60.535156 86.902344 60.621094 87.015625 C 60.710938 87.128906 60.816406 87.222656 60.941406 87.292969 L 167.378906 147.242188 L 46.1875 96.261719 C 46.058594 96.207031 45.917969 96.179688 45.777344 96.175781 C 45.632812 96.175781 45.496094 96.203125 45.363281 96.257812 C 45.230469 96.308594 45.113281 96.386719 45.011719 96.488281 C 44.910156 96.589844 44.832031 96.703125 44.773438 96.835938 C 44.71875 96.96875 44.691406 97.105469 44.691406 97.25 C 44.6875 97.390625 44.714844 97.527344 44.769531 97.660156 C 44.824219 97.792969 44.898438 97.910156 45 98.011719 C 45.101562 98.117188 45.214844 98.195312 45.347656 98.25 L 165.972656 148.964844 L 32.296875 109.492188 C 32.15625 109.441406 32.015625 109.421875 31.867188 109.429688 C 31.71875 109.4375 31.578125 109.476562 31.445312 109.542969 C 31.3125 109.609375 31.199219 109.703125 31.105469 109.816406 C 31.011719 109.929688 30.941406 110.058594 30.898438 110.199219 C 30.859375 110.34375 30.847656 110.488281 30.863281 110.632812 C 30.882812 110.78125 30.929688 110.917969 31.003906 111.046875 C 31.078125 111.175781 31.175781 111.285156 31.292969 111.371094 C 31.414062 111.460938 31.542969 111.519531 31.6875 111.554688 L 164.832031 150.875 L 20.683594 124.753906 C 20.542969 124.730469 20.402344 124.734375 20.265625 124.761719 C 20.125 124.792969 19.996094 124.847656 19.878906 124.929688 C 19.761719 125.011719 19.664062 125.113281 19.585938 125.234375 C 19.507812 125.355469 19.457031 125.484375 19.433594 125.625 C 19.40625 125.765625 19.410156 125.90625 19.441406 126.046875 C 19.46875 126.1875 19.527344 126.3125 19.609375 126.433594 C 19.691406 126.550781 19.789062 126.648438 19.910156 126.722656 C 20.03125 126.800781 20.160156 126.851562 20.300781 126.878906 L 164.019531 152.925781 L 11.65625 141.667969 C 11.515625 141.65625 11.375 141.675781 11.238281 141.71875 C 11.101562 141.765625 10.980469 141.832031 10.871094 141.925781 C 10.765625 142.019531 10.675781 142.128906 10.613281 142.257812 C 10.546875 142.386719 10.511719 142.523438 10.5 142.664062 C 10.488281 142.808594 10.507812 142.945312 10.550781 143.082031 C 10.59375 143.21875 10.664062 143.339844 10.757812 143.449219 C 10.851562 143.558594 10.960938 143.644531 11.089844 143.710938 C 11.21875 143.773438 11.351562 143.8125 11.496094 143.824219 L 163.507812 155.054688 L 5.464844 159.796875 C 5.320312 159.800781 5.183594 159.828125 5.050781 159.886719 C 4.921875 159.941406 4.804688 160.023438 4.707031 160.125 C 4.605469 160.226562 4.53125 160.34375 4.476562 160.476562 C 4.425781 160.609375 4.398438 160.75 4.402344 160.890625 C 4.40625 161.035156 4.433594 161.171875 4.492188 161.300781 C 4.546875 161.433594 4.625 161.550781 4.730469 161.648438 C 4.832031 161.75 4.949219 161.824219 5.082031 161.878906 C 5.214844 161.929688 5.351562 161.953125 5.496094 161.953125 L 5.527344 161.953125 L 163.34375 157.207031 L 2.1875 178.683594 C 2.046875 178.691406 1.910156 178.726562 1.78125 178.792969 C 1.652344 178.855469 1.542969 178.941406 1.449219 179.046875 C 1.351562 179.15625 1.28125 179.277344 1.238281 179.410156 C 1.191406 179.546875 1.171875 179.6875 1.179688 179.828125 C 1.191406 179.972656 1.226562 180.109375 1.289062 180.238281 C 1.351562 180.363281 1.4375 180.476562 1.546875 180.570312 C 1.652344 180.664062 1.777344 180.734375 1.910156 180.78125 C 2.046875 180.828125 2.1875 180.847656 2.328125 180.835938 L 2.46875 180.835938 L 163.375 159.390625 L 1.984375 197.835938 C 1.726562 197.90625 1.523438 198.050781 1.371094 198.273438 C 1.222656 198.492188 1.164062 198.734375 1.195312 199 C 1.226562 199.265625 1.339844 199.488281 1.535156 199.667969 C 1.734375 199.851562 1.964844 199.945312 2.230469 199.953125 C 2.316406 199.953125 2.398438 199.941406 2.480469 199.921875 L 163.738281 161.488281 L 4.828125 216.773438 C 4.582031 216.863281 4.394531 217.019531 4.265625 217.246094 C 4.132812 217.46875 4.089844 217.710938 4.132812 217.96875 C 4.175781 218.222656 4.296875 218.4375 4.496094 218.605469 C 4.695312 218.773438 4.921875 218.859375 5.183594 218.863281 C 5.304688 218.863281 5.425781 218.84375 5.539062 218.804688 L 164.355469 163.5625 L 10.652344 235.007812 C 10.421875 235.113281 10.253906 235.28125 10.140625 235.507812 C 10.03125 235.734375 10.003906 235.96875 10.058594 236.214844 C 10.113281 236.460938 10.238281 236.664062 10.433594 236.820312 C 10.632812 236.980469 10.855469 237.058594 11.109375 237.058594 C 11.265625 237.058594 11.417969 237.023438 11.5625 236.957031 L 165.234375 165.535156 L 19.300781 252.074219 C 19.09375 252.199219 18.945312 252.371094 18.851562 252.59375 C 18.761719 252.820312 18.746094 253.046875 18.808594 253.28125 C 18.871094 253.515625 19 253.707031 19.191406 253.851562 C 19.382812 254 19.597656 254.078125 19.839844 254.078125 C 20.03125 254.078125 20.210938 254.027344 20.378906 253.929688 L 166.34375 167.375 L 30.558594 267.558594 C 30.371094 267.699219 30.242188 267.878906 30.171875 268.101562 C 30.101562 268.324219 30.101562 268.542969 30.175781 268.765625 C 30.246094 268.984375 30.378906 269.164062 30.566406 269.300781 C 30.753906 269.4375 30.964844 269.503906 31.199219 269.503906 C 31.445312 269.503906 31.664062 269.429688 31.855469 269.273438 L 167.703125 169.089844 L 44.125 281.015625 C 43.957031 281.164062 43.847656 281.347656 43.792969 281.566406 C 43.738281 281.785156 43.75 282 43.832031 282.207031 C 43.914062 282.417969 44.046875 282.585938 44.230469 282.714844 C 44.417969 282.839844 44.621094 282.902344 44.847656 282.902344 C 45.125 282.898438 45.363281 282.804688 45.570312 282.621094 L 169.203125 170.582031 L 59.660156 292.152344 C 59.566406 292.261719 59.492188 292.378906 59.445312 292.515625 C 59.398438 292.648438 59.378906 292.789062 59.386719 292.929688 C 59.394531 293.074219 59.429688 293.207031 59.488281 293.335938 C 59.550781 293.464844 59.632812 293.578125 59.742188 293.671875 C 59.945312 293.859375 60.1875 293.953125 60.460938 293.953125 C 60.78125 293.949219 61.046875 293.832031 61.257812 293.59375 L 170.949219 171.863281 L 76.765625 300.675781 C 76.507812 301.03125 76.476562 301.40625 76.675781 301.796875 C 76.875 302.191406 77.191406 302.386719 77.632812 302.386719 C 78 302.390625 78.289062 302.242188 78.507812 301.945312 L 172.835938 172.957031 L 95.003906 306.359375 C 94.933594 306.480469 94.886719 306.613281 94.867188 306.753906 C 94.847656 306.894531 94.859375 307.035156 94.894531 307.171875 C 94.929688 307.3125 94.992188 307.4375 95.078125 307.550781 C 95.164062 307.664062 95.269531 307.757812 95.390625 307.828125 C 95.558594 307.925781 95.738281 307.976562 95.929688 307.972656 C 96.34375 307.972656 96.65625 307.792969 96.863281 307.433594 L 174.855469 173.757812 L 113.90625 309.0625 C 113.847656 309.191406 113.816406 309.328125 113.8125 309.46875 C 113.804688 309.613281 113.828125 309.75 113.878906 309.882812 C 113.929688 310.015625 114.003906 310.136719 114.101562 310.238281 C 114.199219 310.34375 114.3125 310.425781 114.441406 310.484375 C 114.582031 310.546875 114.730469 310.578125 114.882812 310.582031 C 115.097656 310.578125 115.289062 310.523438 115.46875 310.40625 C 115.644531 310.292969 115.777344 310.136719 115.863281 309.945312 L 176.988281 174.277344 L 132.992188 308.722656 C 132.949219 308.859375 132.933594 308.996094 132.945312 309.140625 C 132.953125 309.28125 132.992188 309.417969 133.058594 309.542969 C 133.121094 309.671875 133.207031 309.78125 133.316406 309.875 C 133.425781 309.964844 133.546875 310.035156 133.683594 310.078125 C 133.789062 310.117188 133.902344 310.136719 134.015625 310.136719 C 134.25 310.136719 134.460938 310.070312 134.648438 309.933594 C 134.835938 309.796875 134.96875 309.617188 135.039062 309.394531 L 179.207031 174.46875 L 151.792969 305.355469 C 151.761719 305.496094 151.761719 305.636719 151.785156 305.777344 C 151.8125 305.917969 151.867188 306.046875 151.945312 306.167969 C 152.023438 306.285156 152.121094 306.386719 152.238281 306.46875 C 152.355469 306.546875 152.484375 306.601562 152.625 306.632812 C 152.699219 306.640625 152.773438 306.640625 152.847656 306.632812 C 153.101562 306.632812 153.328125 306.550781 153.523438 306.390625 C 153.71875 306.230469 153.84375 306.023438 153.898438 305.777344 L 181.441406 174.292969 L 169.777344 299.058594 C 169.761719 299.199219 169.777344 299.339844 169.820312 299.476562 C 169.863281 299.609375 169.929688 299.734375 170.019531 299.84375 C 170.109375 299.953125 170.21875 300.039062 170.34375 300.109375 C 170.46875 300.175781 170.605469 300.214844 170.746094 300.226562 L 170.847656 300.226562 C 171.125 300.230469 171.367188 300.136719 171.574219 299.949219 C 171.78125 299.761719 171.898438 299.53125 171.925781 299.253906 L 183.652344 173.753906 L 186.539062 289.945312 C 186.542969 290.085938 186.570312 290.222656 186.628906 290.351562 C 186.683594 290.476562 186.761719 290.59375 186.863281 290.691406 C 186.964844 290.789062 187.078125 290.863281 187.207031 290.917969 C 187.339844 290.96875 187.472656 290.996094 187.613281 290.996094 L 187.640625 290.996094 C 187.78125 290.992188 187.917969 290.960938 188.046875 290.90625 C 188.175781 290.851562 188.289062 290.773438 188.386719 290.671875 C 188.484375 290.570312 188.558594 290.453125 188.613281 290.324219 C 188.664062 290.195312 188.691406 290.058594 188.691406 289.917969 L 185.777344 172.816406 L 201.628906 278.328125 C 201.667969 278.59375 201.789062 278.816406 201.996094 278.988281 C 202.199219 279.164062 202.4375 279.25 202.707031 279.25 L 202.867188 279.25 C 203.007812 279.226562 203.140625 279.179688 203.261719 279.105469 C 203.386719 279.03125 203.488281 278.9375 203.574219 278.824219 C 203.660156 278.710938 203.71875 278.582031 203.753906 278.445312 C 203.789062 278.304688 203.792969 278.167969 203.773438 278.027344 L 187.738281 171.40625 L 214.667969 264.4375 C 214.738281 264.667969 214.867188 264.851562 215.058594 264.996094 C 215.25 265.140625 215.464844 265.210938 215.703125 265.210938 C 215.808594 265.214844 215.90625 265.199219 216.003906 265.167969 C 216.140625 265.128906 216.265625 265.0625 216.375 264.976562 C 216.488281 264.886719 216.578125 264.78125 216.644531 264.65625 C 216.714844 264.53125 216.757812 264.398438 216.773438 264.253906 C 216.789062 264.113281 216.777344 263.976562 216.738281 263.839844 L 189.453125 169.578125 L 225.339844 248.683594 C 225.425781 248.875 225.558594 249.027344 225.738281 249.144531 C 225.914062 249.257812 226.109375 249.316406 226.320312 249.316406 C 226.503906 249.316406 226.675781 249.273438 226.835938 249.1875 C 226.996094 249.097656 227.128906 248.976562 227.226562 248.824219 C 227.324219 248.667969 227.382812 248.5 227.394531 248.316406 C 227.40625 248.132812 227.375 247.960938 227.300781 247.792969 L 190.789062 167.269531 L 233.367188 231.363281 C 233.578125 231.6875 233.878906 231.84375 234.265625 231.84375 C 234.480469 231.84375 234.675781 231.785156 234.855469 231.667969 C 234.976562 231.585938 235.074219 231.488281 235.15625 231.371094 C 235.234375 231.253906 235.289062 231.121094 235.316406 230.984375 C 235.34375 230.84375 235.34375 230.703125 235.316406 230.5625 C 235.289062 230.421875 235.238281 230.292969 235.160156 230.175781 L 191.644531 164.660156 L 238.558594 213.085938 C 238.769531 213.304688 239.027344 213.414062 239.332031 213.414062 C 239.550781 213.410156 239.746094 213.351562 239.925781 213.230469 C 240.105469 213.113281 240.238281 212.953125 240.320312 212.753906 C 240.40625 212.554688 240.425781 212.351562 240.386719 212.136719 C 240.347656 211.925781 240.253906 211.742188 240.105469 211.585938 L 191.933594 161.867188 L 240.804688 194.210938 C 240.984375 194.328125 241.179688 194.386719 241.394531 194.386719 C 241.632812 194.386719 241.847656 194.316406 242.035156 194.175781 C 242.226562 194.035156 242.355469 193.851562 242.425781 193.625 C 242.492188 193.398438 242.488281 193.171875 242.40625 192.949219 C 242.328125 192.726562 242.191406 192.550781 241.996094 192.417969 Z M 241.996094 192.410156 " fill-opacity="1" fill-rule="nonzero"/></g><g transform="matrix(1, 0, 0, 1, 265, 50)"><g clip-path="url(#444771b4af)"><g fill="#033f76" fill-opacity="1"><g transform="translate(0.863314, 119.836079)"><g><path d="M 83.515625 -43.53125 L 83.515625 -43.296875 C 86.359375 -42.828125 89.21875 -42.097656 92.09375 -41.109375 C 94.96875 -40.117188 97.628906 -38.816406 100.078125 -37.203125 C 102.523438 -35.585938 104.476562 -33.613281 105.9375 -31.28125 C 107.394531 -28.957031 108.125 -26.179688 108.125 -22.953125 C 108.125 -18.929688 106.820312 -15.179688 104.21875 -11.703125 C 101.613281 -8.234375 97.351562 -5.414062 91.4375 -3.25 C 85.53125 -1.082031 77.644531 0 67.78125 0 L 8.28125 0 L 8.28125 -86.359375 L 67.78125 -86.359375 C 76.613281 -86.359375 83.769531 -85.289062 89.25 -83.15625 C 94.738281 -81.03125 98.765625 -78.234375 101.328125 -74.765625 C 103.890625 -71.296875 105.171875 -67.550781 105.171875 -63.53125 C 105.171875 -59.425781 104.125 -55.992188 102.03125 -53.234375 C 99.9375 -50.472656 97.234375 -48.320312 93.921875 -46.78125 C 90.609375 -45.25 87.140625 -44.164062 83.515625 -43.53125 Z M 67.078125 -65.421875 L 33.234375 -65.421875 L 33.234375 -52.046875 L 67.78125 -52.046875 C 72.28125 -52.046875 75.375 -52.71875 77.0625 -54.0625 C 78.757812 -55.40625 79.609375 -57.019531 79.609375 -58.90625 C 79.609375 -60.800781 78.738281 -62.359375 77 -63.578125 C 75.269531 -64.804688 71.960938 -65.421875 67.078125 -65.421875 Z M 33.234375 -20.9375 L 67.078125 -20.9375 C 71.335938 -20.9375 74.570312 -21.210938 76.78125 -21.765625 C 78.988281 -22.316406 80.503906 -23.101562 81.328125 -24.125 C 82.160156 -25.15625 82.578125 -26.300781 82.578125 -27.5625 C 82.578125 -29.457031 81.566406 -31.054688 79.546875 -32.359375 C 77.535156 -33.660156 73.613281 -34.3125 67.78125 -34.3125 L 33.234375 -34.3125 Z M 33.234375 -20.9375 "/></g></g></g><g fill="#033f76" fill-opacity="1"><g transform="translate(110.741361, 119.836079)"><g><path d="M 67.421875 -86.359375 L 110.484375 0 L 82.921875 0 L 75.59375 -15.609375 L 33 -15.609375 L 25.671875 0 L -1.78125 0 L 40.9375 -86.359375 Z M 66.25 -35.484375 L 54.1875 -61.046875 L 42.234375 -35.484375 Z M 66.25 -35.484375 "/></g></g></g><g fill="#033f76" fill-opacity="1"><g transform="translate(215.532927, 119.836079)"><g><path d="M 3.78125 -40.8125 L 3.78125 -45.546875 C 3.78125 -53.429688 5.910156 -60.609375 10.171875 -67.078125 C 14.429688 -73.546875 20.800781 -78.691406 29.28125 -82.515625 C 37.757812 -86.335938 48.382812 -88.25 61.15625 -88.25 C 73.144531 -88.25 83.082031 -86.59375 90.96875 -83.28125 C 98.851562 -79.96875 104.90625 -75.453125 109.125 -69.734375 C 113.34375 -64.015625 115.925781 -57.609375 116.875 -50.515625 L 88.953125 -50.515625 C 88.171875 -53.191406 86.734375 -55.691406 84.640625 -58.015625 C 82.546875 -60.347656 79.523438 -62.222656 75.578125 -63.640625 C 71.640625 -65.054688 66.4375 -65.765625 59.96875 -65.765625 C 53.269531 -65.765625 47.710938 -64.816406 43.296875 -62.921875 C 38.878906 -61.035156 35.585938 -58.492188 33.421875 -55.296875 C 31.253906 -52.109375 30.171875 -48.617188 30.171875 -44.828125 L 30.171875 -41.515625 C 30.171875 -37.734375 31.253906 -34.265625 33.421875 -31.109375 C 35.585938 -27.953125 38.878906 -25.40625 43.296875 -23.46875 C 47.710938 -21.539062 53.269531 -20.578125 59.96875 -20.578125 C 66.4375 -20.578125 71.640625 -21.304688 75.578125 -22.765625 C 79.523438 -24.222656 82.546875 -26.113281 84.640625 -28.4375 C 86.734375 -30.769531 88.171875 -33.238281 88.953125 -35.84375 L 116.875 -35.84375 C 115.925781 -28.75 113.34375 -22.34375 109.125 -16.625 C 104.90625 -10.90625 98.851562 -6.390625 90.96875 -3.078125 C 83.082031 0.234375 73.144531 1.890625 61.15625 1.890625 C 48.382812 1.890625 37.757812 -0.0195312 29.28125 -3.84375 C 20.800781 -7.664062 14.429688 -12.8125 10.171875 -19.28125 C 5.910156 -25.75 3.78125 -32.925781 3.78125 -40.8125 Z M 3.78125 -40.8125 "/></g></g></g><g fill="#033f76" fill-opacity="1"><g transform="translate(0.863314, 251.239871)"><g><path d="M 19.28125 -86.359375 L 19.28125 0 L 11.234375 0 L 11.234375 -86.359375 Z M 19.28125 -86.359375 "/></g></g></g><g fill="#033f76" fill-opacity="1"><g transform="translate(31.378486, 251.239871)"><g><path d="M 98.65625 -11.71875 L 98.65625 -86.359375 L 106.46875 -86.359375 L 106.46875 0 L 99.609375 0 L 19.046875 -76.78125 L 19.046875 0 L 11.125 0 L 11.125 -86.359375 L 20.234375 -86.359375 Z M 98.65625 -11.71875 "/></g></g></g><g fill="#033f76" fill-opacity="1"><g transform="translate(148.944734, 251.239871)"><g><path d="M 48.859375 -79.140625 L 4.734375 -79.140625 L 4.734375 -86.359375 L 101.140625 -86.359375 L 101.140625 -79.140625 L 57.015625 -79.140625 L 57.015625 0 L 48.859375 0 Z M 48.859375 -79.140625 "/></g></g></g><g fill="#033f76" fill-opacity="1"><g transform="translate(254.801657, 251.239871)"><g><path d="M 92.15625 0 L 11.125 0 L 11.125 -86.359375 L 89.546875 -86.359375 L 89.546875 -79.140625 L 19.171875 -79.140625 L 19.171875 -47.4375 L 83.875 -47.4375 L 83.875 -40.21875 L 19.171875 -40.21875 L 19.171875 -7.328125 L 92.15625 -7.328125 Z M 92.15625 0 "/></g></g></g><g fill="#033f76" fill-opacity="1"><g transform="translate(352.37931, 251.239871)"><g><path d="M 82.578125 0 L 11.125 0 L 11.125 -86.359375 L 19.171875 -86.359375 L 19.171875 -7.328125 L 82.578125 -7.328125 Z M 82.578125 0 "/></g></g></g><g fill="#033f76" fill-opacity="1"><g transform="translate(438.839011, 251.239871)"><g><path d="M 82.578125 0 L 11.125 0 L 11.125 -86.359375 L 19.171875 -86.359375 L 19.171875 -7.328125 L 82.578125 -7.328125 Z M 82.578125 0 "/></g></g></g><g fill="#033f76" fill-opacity="1"><g transform="translate(525.298712, 251.239871)"><g><path d="M 19.28125 -86.359375 L 19.28125 0 L 11.234375 0 L 11.234375 -86.359375 Z M 19.28125 -86.359375 "/></g></g></g><g fill="#033f76" fill-opacity="1"><g transform="translate(555.813884, 251.239871)"><g><path d="M 102.4375 -39.625 L 59.390625 -39.625 L 59.390625 -46.84375 L 110.484375 -46.84375 L 110.484375 0 L 104.578125 0 L 103.515625 -24.484375 C 100.515625 -16.753906 95.171875 -10.5625 87.484375 -5.90625 C 79.796875 -1.257812 70.113281 1.0625 58.4375 1.0625 C 47.238281 1.0625 37.796875 -0.789062 30.109375 -4.5 C 22.421875 -8.207031 16.625 -13.3125 12.71875 -19.8125 C 8.8125 -26.320312 6.859375 -33.753906 6.859375 -42.109375 L 6.859375 -44.484375 C 6.859375 -52.835938 8.828125 -60.25 12.765625 -66.71875 C 16.710938 -73.1875 22.550781 -78.253906 30.28125 -81.921875 C 38.007812 -85.585938 47.59375 -87.421875 59.03125 -87.421875 C 67.226562 -87.421875 74.320312 -86.59375 80.3125 -84.9375 C 86.3125 -83.28125 91.34375 -81.007812 95.40625 -78.125 C 99.46875 -75.25 102.640625 -72.015625 104.921875 -68.421875 C 107.210938 -64.835938 108.710938 -61.15625 109.421875 -57.375 L 101.140625 -57.375 C 100.273438 -61.238281 98.320312 -64.90625 95.28125 -68.375 C 92.25 -71.84375 87.796875 -74.679688 81.921875 -76.890625 C 76.046875 -79.097656 68.414062 -80.203125 59.03125 -80.203125 C 49.25 -80.203125 41.082031 -78.703125 34.53125 -75.703125 C 27.988281 -72.710938 23.101562 -68.535156 19.875 -63.171875 C 16.644531 -57.804688 15.03125 -51.578125 15.03125 -44.484375 L 15.03125 -41.875 C 15.03125 -34.851562 16.644531 -28.660156 19.875 -23.296875 C 23.101562 -17.941406 27.988281 -13.765625 34.53125 -10.765625 C 41.082031 -7.765625 49.25 -6.265625 59.03125 -6.265625 C 68.332031 -6.265625 76.054688 -7.664062 82.203125 -10.46875 C 88.359375 -13.269531 93.09375 -17.171875 96.40625 -22.171875 C 99.71875 -27.179688 101.726562 -33 102.4375 -39.625 Z M 102.4375 -39.625 "/></g></g></g><g fill="#033f76" fill-opacity="1"><g transform="translate(675.036007, 251.239871)"><g><path d="M 92.15625 0 L 11.125 0 L 11.125 -86.359375 L 89.546875 -86.359375 L 89.546875 -79.140625 L 19.171875 -79.140625 L 19.171875 -47.4375 L 83.875 -47.4375 L 83.875 -40.21875 L 19.171875 -40.21875 L 19.171875 -7.328125 L 92.15625 -7.328125 Z M 92.15625 0 "/></g></g></g><g fill="#033f76" fill-opacity="1"><g transform="translate(772.613659, 251.239871)"><g><path d="M 98.65625 -11.71875 L 98.65625 -86.359375 L 106.46875 -86.359375 L 106.46875 0 L 99.609375 0 L 19.046875 -76.78125 L 19.046875 0 L 11.125 0 L 11.125 -86.359375 L 20.234375 -86.359375 Z M 98.65625 -11.71875 "/></g></g></g><g fill="#033f76" fill-opacity="1"><g transform="translate(890.179907, 251.239871)"><g><path d="M 6.859375 -42 L 6.859375 -44.484375 C 6.859375 -52.835938 8.828125 -60.25 12.765625 -66.71875 C 16.710938 -73.1875 22.585938 -78.253906 30.390625 -81.921875 C 38.203125 -85.585938 47.90625 -87.421875 59.5 -87.421875 C 70.226562 -87.421875 79.160156 -85.863281 86.296875 -82.75 C 93.429688 -79.632812 98.988281 -75.472656 102.96875 -70.265625 C 106.957031 -65.054688 109.460938 -59.300781 110.484375 -53 L 102.09375 -53 C 101.21875 -58.039062 99.144531 -62.613281 95.875 -66.71875 C 92.601562 -70.820312 87.988281 -74.09375 82.03125 -76.53125 C 76.082031 -78.976562 68.570312 -80.203125 59.5 -80.203125 C 49.5625 -80.203125 41.300781 -78.703125 34.71875 -75.703125 C 28.132812 -72.710938 23.207031 -68.535156 19.9375 -63.171875 C 16.664062 -57.804688 15.03125 -51.578125 15.03125 -44.484375 L 15.03125 -41.875 C 15.03125 -34.851562 16.664062 -28.660156 19.9375 -23.296875 C 23.207031 -17.941406 28.132812 -13.765625 34.71875 -10.765625 C 41.300781 -7.765625 49.5625 -6.265625 59.5 -6.265625 C 68.570312 -6.265625 76.082031 -7.503906 82.03125 -9.984375 C 87.988281 -12.472656 92.601562 -15.785156 95.875 -19.921875 C 99.144531 -24.066406 101.21875 -28.585938 102.09375 -33.484375 L 110.484375 -33.484375 C 109.460938 -27.242188 106.957031 -21.503906 102.96875 -16.265625 C 98.988281 -11.023438 93.429688 -6.828125 86.296875 -3.671875 C 79.160156 -0.515625 70.226562 1.0625 59.5 1.0625 C 47.90625 1.0625 38.203125 -0.789062 30.390625 -4.5 C 22.585938 -8.207031 16.710938 -13.289062 12.765625 -19.75 C 8.828125 -26.21875 6.859375 -33.632812 6.859375 -42 Z M 6.859375 -42 "/></g></g></g><g fill="#033f76" fill-opacity="1"><g transform="translate(1007.036543, 251.239871)"><g><path d="M 92.15625 0 L 11.125 0 L 11.125 -86.359375 L 89.546875 -86.359375 L 89.546875 -79.140625 L 19.171875 -79.140625 L 19.171875 -47.4375 L 83.875 -47.4375 L 83.875 -40.21875 L 19.171875 -40.21875 L 19.171875 -7.328125 L 92.15625 -7.328125 Z M 92.15625 0 "/></g></g></g></g></g></svg>